<?xml version="1.0" encoding="UTF-8"?>
<svg id="Layer_1" data-name="Layer 1" xmlns="http://www.w3.org/2000/svg" viewBox="0 0 72 72">
  <defs>
    <style>
      .cls-1 {
        fill: #672b7e;
      }
    </style>
  </defs>
  <path class="cls-1" d="M46.59,72h-21.18l-.45-1.49c-.22-.74-.03-1.54.5-2.11l6.32-6.71c.52-.56,1.31-.79,2.06-.62l8.97,2.12c.75.18,1.35.74,1.57,1.48l2.21,7.33Z"/>
  <path class="cls-1" d="M10.54,39.6l-6.32,6.71c-.52.56-1.31.79-2.06.62l-2.16-.51v-20.84l6.81,1.61c.75.18,1.35.74,1.57,1.48l2.66,8.82c.22.74.03,1.54-.5,2.11Z"/>
  <path class="cls-1" d="M46.54,3.6l-6.32,6.71c-.52.56-1.31.79-2.06.62l-8.97-2.12c-.75-.18-1.35-.74-1.57-1.48l-2.21-7.33h21.18l.45,1.49c.22.74.03,1.54-.5,2.11Z"/>
  <path class="cls-1" d="M72,25.58v20.84l-6.81-1.61c-.75-.18-1.35-.74-1.57-1.48l-2.66-8.82c-.22-.74-.03-1.54.5-2.11l6.32-6.71c.52-.56,1.31-.79,2.06-.62l2.16.51Z"/>
</svg>